<svg width="50" height="51" viewBox="0 0 50 51" fill="none" xmlns="http://www.w3.org/2000/svg">
<path d="M47.2282 28.9549C46.6977 28.8457 46.1864 29.216 46.0844 29.781C44.1432 40.5311 35.2759 48.3336 25 48.3336C14.9407 48.3336 6.23133 40.8564 4.04763 30.4565L4.30252 30.7285C4.49324 30.932 4.74314 31.0338 4.99305 31.0338C5.24295 31.0338 5.49285 30.932 5.68348 30.7286C6.06493 30.3216 6.06493 29.6619 5.68358 29.2549L3.67527 27.1117C3.49216 26.9162 3.24372 26.8064 2.98474 26.8064C2.72575 26.8064 2.47732 26.9162 2.29421 27.1117L0.286 29.2549C-0.0953495 29.6618 -0.0953494 30.3215 0.286097 30.7286C0.667349 31.1356 1.28581 31.1355 1.66716 30.7285L2.02868 30.3427C4.20808 41.9853 13.8431 50.4177 25 50.4177C36.2103 50.4177 45.8842 41.9046 48.0023 30.1754C48.1043 29.6103 47.7577 29.0638 47.2282 28.9549Z" fill="black"/>
<path d="M49.7139 20.1069C49.3326 19.6998 48.7142 19.6999 48.3328 20.107L47.9713 20.4927C45.7919 8.85008 36.1569 0.417725 24.9999 0.417725C13.7896 0.417725 4.11575 8.93084 1.99768 20.66C1.89563 21.2252 2.24221 21.7716 2.7718 21.8805C3.30208 21.9892 3.81351 21.6193 3.91556 21.0544C5.85687 10.3043 14.7242 2.50187 24.9999 2.50187C35.0592 2.50187 43.7686 9.97906 45.9523 20.379L45.6974 20.107C45.3162 19.7 44.6979 19.6999 44.3164 20.1069C43.9349 20.5138 43.9349 21.1735 44.3163 21.5806L46.3245 23.7237C46.5076 23.9192 46.756 24.029 47.015 24.029C47.274 24.029 47.5224 23.9192 47.7056 23.7237L49.7138 21.5806C50.0954 21.1736 50.0954 20.5138 49.7139 20.1069Z" fill="black"/>
<path d="M24.9999 43.0327C34.1022 43.0327 41.5076 35.1306 41.5076 25.4176C41.5076 15.7046 34.1022 7.80249 24.9999 7.80249C15.8975 7.80249 8.4921 15.7046 8.4921 25.4176C8.4921 35.1306 15.8975 43.0327 24.9999 43.0327ZM24.9999 9.88664C33.0254 9.88664 39.5545 16.8537 39.5545 25.4176C39.5545 33.9815 33.0254 40.9486 24.9999 40.9486C16.9744 40.9486 10.4452 33.9815 10.4452 25.4176C10.4452 16.8537 16.9744 9.88664 24.9999 9.88664Z" fill="black"/>
<path d="M26.0303 30.0113C26.1487 30.0617 26.2708 30.0854 26.3909 30.0854C26.7792 30.0854 27.1464 29.8366 27.2986 29.4281L30.0012 22.1775C30.2006 21.6427 29.9558 21.0367 29.4548 20.824C28.9538 20.6114 28.3857 20.8724 28.1864 21.4073L25.4838 28.6579C25.2844 29.1927 25.5292 29.7986 26.0303 30.0113Z" fill="black"/>
<path d="M31.5491 22.8347H33.7913L31.4062 28.624C31.1891 29.1509 31.4134 29.7657 31.9072 29.9974C32.0351 30.0574 32.1684 30.0858 32.2998 30.0858C32.6753 30.0857 33.0335 29.8532 33.1942 29.4629L36.1813 22.2121C36.314 21.8898 36.2854 21.5179 36.1051 21.2232C35.9248 20.9284 35.6173 20.7507 35.2874 20.7507H31.5492C31.0099 20.7507 30.5726 21.2174 30.5726 21.7928C30.5725 22.368 31.0097 22.8347 31.5491 22.8347Z" fill="black"/>
<path d="M19.0485 27.4328C19.2242 27.7503 19.5439 27.9451 19.8894 27.9451H22.3043C22.3015 28.3292 22.2987 28.6972 22.296 29.0341C22.2914 29.6096 22.7249 30.0801 23.2641 30.0851H23.2727C23.8081 30.0851 24.2444 29.6244 24.2491 29.052C24.2513 28.7793 24.2543 28.3922 24.2576 27.9396C24.7494 27.8855 25.1331 27.4421 25.1331 26.903C25.1331 26.3686 24.7562 25.9283 24.2706 25.8679C24.2794 24.1717 24.2827 22.4641 24.2628 22.2084C24.2105 21.5382 23.8269 20.9898 23.2855 20.8107C22.7449 20.6323 22.1764 20.8476 21.7646 21.3868C21.3779 21.8929 19.7265 25.061 19.0344 26.3996C18.8674 26.7225 18.8728 27.1153 19.0485 27.4328ZM22.3232 24.4058C22.3217 24.8559 22.3197 25.3512 22.317 25.8609H21.5504C21.8218 25.345 22.0856 24.8478 22.3232 24.4058Z" fill="black"/>
<path d="M18.4578 30.1393C18.997 30.1321 19.4287 29.6596 19.4219 29.0842C19.4153 28.5132 18.9794 28.0552 18.4458 28.0552C18.4416 28.0552 18.4374 28.0552 18.4332 28.0553C17.8985 28.0624 17.3368 28.0677 16.8293 28.0703C17.1806 27.5627 17.6317 26.8976 18.2015 26.0288C18.651 25.3435 18.9449 24.692 19.0752 24.0925C19.1072 23.9595 19.1338 23.7715 19.1341 23.5767C19.1362 21.979 17.916 20.6792 16.4187 20.6792C15.1242 20.6792 14.0038 21.6621 13.7544 23.0162C13.6504 23.5809 13.9951 24.1286 14.5244 24.2396C15.054 24.3507 15.567 23.9827 15.6709 23.4179C15.7407 23.0386 16.0552 22.7633 16.4187 22.7633C16.8223 22.7633 17.1536 23.0999 17.1793 23.5238L17.1622 23.6664C17.1039 23.9041 16.9585 24.2893 16.6014 24.8336C15.5275 26.4709 14.8869 27.366 14.5427 27.8468C14.1014 28.4634 13.8584 28.803 14.0208 29.367C14.1164 29.6985 14.3603 29.9629 14.6741 30.0746C14.8045 30.121 14.9089 30.1581 16.2425 30.1581C16.7662 30.158 17.4793 30.1524 18.4578 30.1393Z" fill="black"/>
</svg>
