<svg width="50" height="50" viewBox="0 0 50 50" fill="none" xmlns="http://www.w3.org/2000/svg">
<path d="M48.942 47.6636H31.3849V28.972H33.0924C34.6428 28.972 35.8999 30.3855 35.8894 32.1145C35.8894 32.1262 35.8894 32.1262 35.8894 32.1379V35.3738C35.8894 38.7967 38.3721 41.5654 41.4414 41.5654C44.5108 41.5654 46.9935 38.7967 46.9935 35.3738V16.8925C46.9935 14.9766 46.3545 13.1308 45.1812 11.7173L36.9893 1.30841L35.418 2.85047L41.7662 10.9229C39.472 11.3551 37.9216 13.7734 38.3092 16.3318C38.6445 18.5981 40.4044 20.257 42.4681 20.257C43.3375 20.2453 44.186 19.9533 44.8984 19.3925V35.3738C44.8984 37.5 43.348 39.229 41.4414 39.229C39.5349 39.229 37.9845 37.5 37.9845 35.3738V32.1379C37.995 29.1122 35.8056 26.6472 33.1029 26.6355H33.0924H31.3849V4.87149C31.3849 2.20794 29.4574 0 27.0689 0H7.60528C5.21684 0 3.31029 2.21963 3.31029 4.87149V47.6636H1.04756C0.471402 47.6636 0 48.1893 0 48.8318C0 49.4743 0.471402 50 1.04756 50H48.9524C49.5286 50 50 49.4743 50 48.8318C50 48.1893 49.5286 47.6636 48.942 47.6636ZM42.4681 17.9089C41.2948 17.9089 40.352 16.8458 40.352 15.5491C40.352 14.2523 41.3053 13.1893 42.4681 13.1893C43.6413 13.1893 44.5841 14.2523 44.5841 15.5491C44.5841 16.8458 43.6308 17.9089 42.4681 17.9089ZM29.2898 47.6636H5.40541V4.87149C5.40541 3.49299 6.36916 2.33645 7.60528 2.33645H27.0689C28.305 2.33645 29.2898 3.50467 29.2898 4.87149V47.6636Z" fill="black"/>
<path d="M26.7756 5.13306H8.23384C7.65768 5.13306 7.18628 5.60446 7.18628 6.18062V18.4371C7.18628 19.0132 7.65768 19.4846 8.23384 19.4846H26.7756C27.3518 19.4846 27.8232 19.0132 27.8232 18.4371V6.18062C27.8232 5.60446 27.3518 5.13306 26.7756 5.13306ZM25.7281 17.3895H9.2814V7.22818H25.7281V17.3895Z" fill="black"/>
</svg>
