<svg width="50" height="50" viewBox="0 0 50 50" fill="none" xmlns="http://www.w3.org/2000/svg">
<path d="M12.9328 22.9125L13.2656 21.25C13.2915 21.1234 13.2856 20.9924 13.2484 20.8687C13.2112 20.745 13.144 20.6324 13.0526 20.5411C12.9613 20.4497 12.8487 20.3825 12.725 20.3453C12.6013 20.3081 12.4703 20.3022 12.3438 20.3281L5.79063 21.6406C5.25998 21.7477 4.78261 22.0348 4.43925 22.4533C4.09589 22.8718 3.90761 23.3961 3.90625 23.9375V25.7812C3.90624 25.8911 3.9294 25.9997 3.97421 26.1C4.01903 26.2003 4.08449 26.29 4.16632 26.3633C4.24816 26.4365 4.34452 26.4917 4.44914 26.5253C4.55375 26.5588 4.66425 26.5699 4.77344 26.5578L9.53438 26.0281C10.359 25.9389 11.1336 25.5885 11.7449 25.028C12.3563 24.4675 12.7725 23.7263 12.9328 22.9125V22.9125ZM11.4008 22.6062C11.3045 23.0944 11.0547 23.5391 10.6879 23.8754C10.3211 24.2117 9.85645 24.422 9.36172 24.4757V24.4757L5.46875 24.9085V23.9375C5.46853 23.7572 5.53064 23.5825 5.64455 23.4428C5.75846 23.3031 5.91716 23.2071 6.09375 23.1711L11.5008 22.0898L11.4008 22.6062Z" fill="black"/>
<path d="M47.6562 2.34379H42.0781C40.7761 2.3396 39.4904 2.63306 38.3192 3.20175C37.148 3.77044 36.1222 4.59931 35.3203 5.62504L29.4453 13.1016L8.91406 3.97661C8.7999 3.92501 8.67501 3.90163 8.54992 3.90843C8.42483 3.91523 8.30321 3.95201 8.19531 4.01567L4.28906 6.35942L5.08594 7.70317L8.64844 5.56254L27.125 13.7813L7.21094 17.7579C5.61882 18.081 4.18713 18.944 3.15792 20.2009C2.12871 21.4579 1.56515 23.0317 1.5625 24.6563V31.25C1.5625 31.4572 1.64481 31.656 1.79132 31.8025C1.93784 31.949 2.13655 32.0313 2.34375 32.0313H16.5156C16.6862 32.7017 17.0753 33.2961 17.6214 33.7206C18.1675 34.1452 18.8395 34.3757 19.5312 34.3757C20.223 34.3757 20.895 34.1452 21.4411 33.7206C21.9872 33.2961 22.3763 32.7017 22.5469 32.0313H25V46.875C25 47.0822 25.0823 47.281 25.2288 47.4275C25.3753 47.574 25.574 47.6563 25.7812 47.6563H29.6875C29.8947 47.6563 30.0934 47.574 30.2399 47.4275C30.3864 47.281 30.4688 47.0822 30.4688 46.875V32.0313H41.6641L38.7734 34.1563L32.5859 32.4922C32.4672 32.4419 32.3379 32.4218 32.2095 32.4337C32.0811 32.4455 31.9576 32.489 31.8501 32.5601C31.7425 32.6313 31.6543 32.728 31.5932 32.8416C31.5321 32.9551 31.5001 33.082 31.5 33.211V33.2266C31.4989 33.2956 31.5095 33.3643 31.5313 33.4297C32.0737 35.4943 33.3661 37.2825 35.1562 38.4454V47.6563C35.1562 47.8635 35.2386 48.0622 35.3851 48.2087C35.5316 48.3552 35.7303 48.4375 35.9375 48.4375H43.75C43.9572 48.4375 44.1559 48.3552 44.3024 48.2087C44.4489 48.0622 44.5312 47.8635 44.5312 47.6563V38.4454C45.728 37.664 46.7116 36.5973 47.3935 35.3412C48.0754 34.0852 48.4342 32.6793 48.4375 31.25V3.12504C48.4375 2.91784 48.3552 2.71913 48.2087 2.57262C48.0622 2.4261 47.8635 2.34379 47.6562 2.34379V2.34379ZM19.5312 32.8125C19.2222 32.8125 18.9201 32.7209 18.6632 32.5492C18.4062 32.3775 18.206 32.1335 18.0877 31.848C17.9694 31.5625 17.9385 31.2483 17.9988 30.9452C18.0591 30.6421 18.2079 30.3637 18.4264 30.1452C18.6449 29.9267 18.9233 29.7779 19.2264 29.7176C19.5295 29.6573 19.8437 29.6882 20.1292 29.8065C20.4147 29.9247 20.6587 30.125 20.8304 30.382C21.0021 30.6389 21.0938 30.941 21.0938 31.25C21.0925 31.6641 20.9275 32.0608 20.6347 32.3535C20.342 32.6463 19.9453 32.8113 19.5312 32.8125V32.8125ZM22.5469 30.4688C22.3763 29.7984 21.9872 29.204 21.4411 28.7795C20.895 28.3549 20.223 28.1244 19.5312 28.1244C18.8395 28.1244 18.1675 28.3549 17.6214 28.7795C17.0753 29.204 16.6862 29.7984 16.5156 30.4688H13.3281C13.5146 28.9549 14.2482 27.5615 15.3908 26.5511C16.5333 25.5406 18.006 24.9828 19.5312 24.9828C21.0565 24.9828 22.5292 25.5406 23.6717 26.5511C24.8143 27.5615 25.5479 28.9549 25.7344 30.4688H22.5469ZM28.9062 46.0938H26.5625V32.0313H28.9062V46.0938ZM28.9062 30.4688H27.3047C27.1112 28.5416 26.2088 26.7549 24.7724 25.4555C23.336 24.1561 21.4682 23.4366 19.5312 23.4366C17.5943 23.4366 15.7265 24.1561 14.2901 25.4555C12.8537 26.7549 11.9513 28.5416 11.7578 30.4688H3.125V24.6563C3.12742 23.3918 3.56651 22.167 4.36798 21.1891C5.16945 20.2111 6.28411 19.5399 7.52344 19.2891L28.9062 15.0157V30.4688ZM43.3594 37.3282C43.2402 37.397 43.1412 37.4961 43.0726 37.6155C43.004 37.7348 42.9682 37.8702 42.9688 38.0079V46.875H36.7188V38.0079C36.7193 37.8702 36.6835 37.7348 36.6149 37.6155C36.5463 37.4961 36.4473 37.397 36.3281 37.3282C35.1287 36.6354 34.1589 35.6059 33.5391 34.3672L38.7344 35.7657C38.8475 35.7944 38.9655 35.7982 39.0802 35.7766C39.1949 35.755 39.3035 35.7086 39.3984 35.6407L43.4297 32.6641C43.5723 32.56 43.6754 32.4106 43.7222 32.2404C43.769 32.0701 43.7568 31.889 43.6875 31.7266L41.6797 27.1485C41.6312 27.0413 41.5599 26.9459 41.4709 26.869C41.3819 26.7922 41.2772 26.7356 41.1641 26.7032L36.0469 25.3282C36.8353 24.806 37.721 24.4482 38.6509 24.2762C39.5808 24.1042 40.5358 24.1216 41.4589 24.3273C42.3819 24.5329 43.254 24.9227 44.0229 25.4733C44.7918 26.0238 45.4417 26.7238 45.9338 27.5313C46.4259 28.3389 46.7501 29.2374 46.8869 30.1731C47.0237 31.1089 46.9703 32.0626 46.7299 32.9772C46.4896 33.8918 46.0672 34.7486 45.4881 35.4962C44.9089 36.2438 44.1849 36.8669 43.3594 37.3282V37.3282ZM46.875 26.3282C46.1606 25.303 45.2308 24.4464 44.1506 23.8183C43.0705 23.1902 41.8661 22.8058 40.6218 22.6919C39.3775 22.5781 38.1234 22.7375 36.9471 23.1592C35.7709 23.5808 34.7011 24.2544 33.8125 25.1329C33.7135 25.2292 33.6418 25.3501 33.6047 25.4833C33.5676 25.6164 33.5666 25.757 33.6016 25.8907C33.6381 26.0232 33.7085 26.144 33.8057 26.2412C33.9029 26.3385 34.0237 26.4088 34.1563 26.4454L40.3984 28.1172L41.4297 30.4688H30.4688V14.8438H46.875V26.3282ZM46.875 13.2813H31.2969L36.5469 6.59379C37.2028 5.75367 38.0423 5.07473 39.001 4.60892C39.9597 4.14311 41.0123 3.90277 42.0781 3.90629H46.875V13.2813Z" fill="black"/>
<path d="M18.75 35.1562H6.25C5.83598 35.1575 5.43927 35.3225 5.14651 35.6153C4.85375 35.908 4.68874 36.3047 4.6875 36.7188V40.625H3.125C2.71098 40.6262 2.31427 40.7913 2.02151 41.084C1.72875 41.3768 1.56374 41.7735 1.5625 42.1875V46.0938C1.56374 46.5078 1.72875 46.9045 2.02151 47.1972C2.31427 47.49 2.71098 47.655 3.125 47.6562H15.625C16.039 47.655 16.4357 47.49 16.7285 47.1972C17.0212 46.9045 17.1863 46.5078 17.1875 46.0938V42.1875H18.75C19.164 42.1863 19.5607 42.0212 19.8535 41.7285C20.1462 41.4357 20.3113 41.039 20.3125 40.625V36.7188C20.3113 36.3047 20.1462 35.908 19.8535 35.6153C19.5607 35.3225 19.164 35.1575 18.75 35.1562V35.1562ZM15.625 46.0938H3.125V42.1875H15.625V46.0938ZM18.75 40.625H6.25V36.7188H18.75V40.625Z" fill="black"/>
</svg>
