<svg width="40" height="41" viewBox="0 0 40 41" fill="none" xmlns="http://www.w3.org/2000/svg">
<path d="M0.126744 23.5194L1.08158 27.4258C1.17076 27.7908 1.57262 28.0571 2.03649 28.058C2.09997 28.0581 2.16443 28.0527 2.22695 28.0427C2.48288 28.0033 2.7038 27.8858 2.84962 27.7134C2.99544 27.5402 3.04757 27.3317 2.99814 27.1269L2.10922 23.4886L6.57585 16.5834L17.0065 16.6023L18.9387 19.6133L17.8769 21.2548L16.0093 18.5639C15.8373 18.3161 15.5112 18.1622 15.157 18.1615L8.41872 18.1493C8.06462 18.1487 7.73787 18.3014 7.56496 18.5486L4.23602 23.3082C4.12244 23.4706 4.08509 23.6601 4.13076 23.8426L7.23324 36.2701C7.32428 36.6349 7.72438 36.8981 8.18942 36.8989L15.3183 36.9118C15.7834 36.9127 16.1844 36.6511 16.2768 36.2865L18.0416 29.3243L19.017 33.3156L17.7353 38.4786L5.76667 38.457L4.68486 34.0284C4.59567 33.6634 4.19381 33.3971 3.72897 33.3962C3.66549 33.3961 3.60201 33.4015 3.53851 33.4107C3.01004 33.4934 2.66457 33.9044 2.76732 34.3273L4.00424 39.3858C4.09342 39.7516 4.49627 40.0172 4.96111 40.018L18.5352 40.0426C19.0001 40.0434 19.4039 39.7793 19.4944 39.4139L20.0048 37.3574L20.5078 39.4159C20.5974 39.7824 20.9984 40.0471 21.4649 40.0479L35.039 40.0725C35.5055 40.0734 35.9074 39.8101 35.9982 39.444L39.9332 23.5917C39.9761 23.4189 39.9447 23.2395 39.844 23.0826L34.9749 15.4956C34.8079 15.2353 34.4733 15.0714 34.1076 15.0708L32.4475 15.0678L32.4733 0.849043C32.474 0.417559 32.0375 0.0670016 31.4981 0.066024L25.1505 0.0545193C24.6111 0.0535417 24.1732 0.402514 24.1724 0.833998L24.1623 6.38086C24.1616 6.81235 24.5982 7.1629 25.1376 7.16388L26.6025 7.16654L26.5983 9.51028L25.1335 9.50763C24.5942 9.50665 24.1562 9.85563 24.1555 10.2871L24.1468 15.0527L22.4868 15.0497C22.1211 15.0491 21.786 15.2118 21.6179 15.4714L20.0402 17.9104L18.4714 15.4658C18.3039 15.2046 17.9711 15.0415 17.604 15.0408L15.9437 15.0378L15.9695 0.81905C15.9703 0.387567 15.5338 0.0370133 14.9944 0.0360357L8.64678 0.024531C8.10743 0.0235534 7.66939 0.372522 7.66861 0.804006L7.65856 6.35088C7.65777 6.78236 8.09454 7.13292 8.6339 7.13389L10.0986 7.13655L10.0944 9.48029L8.62975 9.47764C8.09039 9.47666 7.65236 9.82563 7.65157 10.2571L7.64294 15.0227L5.98298 15.0197C5.6158 15.0191 5.28249 15.181 5.11405 15.4416L0.217509 23.0109C0.115661 23.1686 0.0840907 23.3451 0.126744 23.5194V23.5194ZM8.98952 19.7128L14.5804 19.7229L16.7994 22.9202L16.7931 22.93L6.75207 22.9118L8.98952 19.7128ZM14.5214 35.3478L8.99176 35.3378L7.74301 30.3355L15.7883 30.3501L14.5214 35.3478ZM16.1843 28.7883L7.35278 28.7723L6.27961 24.4735L16.8608 24.4927L17.0633 25.3208L16.1843 28.7883ZM26.1072 11.0719L27.5721 11.0746C28.1115 11.0755 28.5492 10.7266 28.55 10.2951L28.5571 6.38883C28.5578 5.95735 28.1213 5.60679 27.582 5.60581L26.1171 5.60316L26.1243 1.61879L30.5188 1.62675L30.4945 15.0642L26.0999 15.0563L26.1072 11.0719ZM23.0791 16.6133L33.5097 16.6322L37.9514 23.5532L34.239 38.5086L22.2707 38.4869L18.6125 23.5181L23.0791 16.6133ZM9.60328 11.042L11.0682 11.0446C11.6076 11.0456 12.0453 10.6966 12.0461 10.2652L12.0532 6.35892C12.054 5.92743 11.6175 5.57688 11.0781 5.5759L9.61319 5.57324L9.62041 1.58887L14.0149 1.59684L13.9906 15.0343L9.59606 15.0264L9.60328 11.042Z" fill="black"/>
<path d="M20.6345 23.8724L23.737 36.2999C23.8281 36.6648 24.2282 36.9279 24.6932 36.9287L31.8221 36.9417C32.2871 36.9425 32.6882 36.6809 32.7806 36.3163L35.9281 23.9001C35.9743 23.7178 35.9376 23.5282 35.8247 23.3654L32.5131 18.5937C32.3411 18.3459 32.0149 18.192 31.6607 18.1913L24.9224 18.1791C24.5683 18.1785 24.2416 18.3313 24.0686 18.5784L20.7397 23.338C20.6262 23.5004 20.5889 23.6899 20.6345 23.8724ZM31.0252 35.3777L25.4955 35.3677L24.2468 30.3654L32.2921 30.38L31.0252 35.3777ZM25.4933 19.7427L31.0842 19.7528L33.31 22.96L23.2559 22.9417L25.4933 19.7427ZM33.7768 24.5233L32.6881 28.8182L23.8566 28.8022L22.7834 24.5034L33.7768 24.5233Z" fill="black"/>
<path d="M2.88443 29.9455C2.34509 29.9445 1.90723 30.2935 1.90645 30.7249C1.90567 31.1564 2.34226 31.507 2.8816 31.508C3.42093 31.5089 3.85879 31.16 3.85957 30.7285C3.86035 30.297 3.42377 29.9464 2.88443 29.9455Z" fill="black"/>
</svg>
