<svg width="50" height="51" viewBox="0 0 50 51" fill="none" xmlns="http://www.w3.org/2000/svg">
<g clip-path="url(#clip0)">
<path d="M31.8359 21.0232C31.8359 18.0616 29.4265 15.6521 26.4648 15.6521H19.1406C18.6014 15.6521 18.1641 16.0894 18.1641 16.6287V25.4177C18.1641 25.957 18.6014 26.3943 19.1406 26.3943H26.4648C29.4265 26.3943 31.8359 23.9848 31.8359 21.0232ZM20.1172 17.6052H26.4648C28.3495 17.6052 29.8828 19.1385 29.8828 21.0232C29.8828 22.9079 28.3495 24.4412 26.4648 24.4412H20.1172V17.6052Z" fill="black"/>
<path d="M37.6953 21.0232C37.6953 14.8307 32.6573 9.79272 26.4648 9.79272H13.2812C12.742 9.79272 12.3047 10.23 12.3047 10.7693V40.0662C12.3047 40.6054 12.742 41.0427 13.2812 41.0427H19.1406C19.6799 41.0427 20.1172 40.6054 20.1172 40.0662V32.2537H26.4648C32.6573 32.2537 37.6953 27.2157 37.6953 21.0232ZM19.1406 30.3005C18.6014 30.3005 18.1641 30.7378 18.1641 31.2771V39.0896H14.2578V11.7458H26.4648C31.5804 11.7458 35.7422 15.9077 35.7422 21.0232C35.7422 26.1387 31.5804 30.3005 26.4648 30.3005H19.1406Z" fill="black"/>
<path d="M25 50.4177C25.5393 50.4177 25.9766 49.9805 25.9766 49.4412C25.9766 48.9018 25.5393 48.4646 25 48.4646C24.4607 48.4646 24.0234 48.9018 24.0234 49.4412C24.0234 49.9805 24.4607 50.4177 25 50.4177Z" fill="black"/>
<path d="M46.0938 0.417725H3.90625C1.75234 0.417725 0 2.17007 0 4.32397V46.5115C0 48.6654 1.75234 50.4177 3.90625 50.4177H20.6055C21.1447 50.4177 21.582 49.9804 21.582 49.4412C21.582 48.9019 21.1447 48.4646 20.6055 48.4646H3.90625C2.8293 48.4646 1.95312 47.5884 1.95312 46.5115V4.32397C1.95312 3.24702 2.8293 2.37085 3.90625 2.37085H46.0938C47.1707 2.37085 48.0469 3.24702 48.0469 4.32397V46.5115C48.0469 47.5884 47.1707 48.4646 46.0938 48.4646H29.3945C28.8553 48.4646 28.418 48.9019 28.418 49.4412C28.418 49.9804 28.8553 50.4177 29.3945 50.4177H46.0938C48.2477 50.4177 50 48.6654 50 46.5115V4.32397C50 2.17007 48.2477 0.417725 46.0938 0.417725Z" fill="black"/>
</g>
<defs>
<clipPath id="clip0">
<rect width="50" height="50" fill="white" transform="translate(0 0.417725)"/>
</clipPath>
</defs>
</svg>
