<svg width="30" height="30" viewBox="0 0 30 30" fill="none" xmlns="http://www.w3.org/2000/svg">
<path d="M15 9.15527e-05C6.7166 9.15527e-05 0 6.71539 0 14.9995C0 23.2836 6.71594 29.9989 15 29.9989C23.2847 29.9989 30 23.2836 30 14.9995C30 6.71539 23.2847 9.15527e-05 15 9.15527e-05ZM15 4.48508C17.7409 4.48508 19.962 6.70682 19.962 9.44644C19.962 12.1867 17.7409 14.4078 15 14.4078C12.2604 14.4078 10.0393 12.1867 10.0393 9.44644C10.0393 6.70682 12.2604 4.48508 15 4.48508ZM14.9967 26.0772C12.263 26.0772 9.75929 25.0816 7.82812 23.4338C7.35768 23.0325 7.08623 22.4442 7.08623 21.8268C7.08623 19.0483 9.33497 16.8246 12.1141 16.8246H17.8872C20.667 16.8246 22.9072 19.0483 22.9072 21.8268C22.9072 22.4448 22.637 23.0319 22.1659 23.4331C20.2354 25.0816 17.731 26.0772 14.9967 26.0772Z" fill="black"/>
</svg>
