<svg width="50" height="51" viewBox="0 0 50 51" fill="none" xmlns="http://www.w3.org/2000/svg">
<g clip-path="url(#clip0)">
<path d="M12 34.1786V42.6569C12 42.8587 12.0737 43.0522 12.205 43.1949C12.3363 43.3376 12.5143 43.4177 12.7 43.4177H26.3C26.4857 43.4177 26.6637 43.3376 26.795 43.1949C26.9262 43.0522 27 42.8587 27 42.6569V34.1786C27.0001 34.0787 26.982 33.9797 26.9468 33.8874C26.9117 33.795 26.8601 33.7111 26.7951 33.6404C26.7301 33.5698 26.6529 33.5137 26.5679 33.4755C26.483 33.4373 26.3919 33.4177 26.3 33.4177H12.7C12.6081 33.4177 12.517 33.4373 12.4321 33.4755C12.3471 33.5137 12.2699 33.5698 12.2049 33.6404C12.1399 33.7111 12.0883 33.795 12.0532 33.8874C12.018 33.9797 11.9999 34.0787 12 34.1786ZM13.4 34.9395H25.6V41.896H13.4V34.9395Z" fill="black"/>
<path d="M14.7 16.4177C14.5143 16.4177 14.3363 16.4704 14.205 16.5642C14.0738 16.6579 14 16.7851 14 16.9177C14 17.0503 14.0738 17.1775 14.205 17.2713C14.3363 17.365 14.5143 17.4177 14.7 17.4177H24.3C24.4857 17.4177 24.6637 17.365 24.795 17.2713C24.9263 17.1775 25 17.0503 25 16.9177C25 16.7851 24.9263 16.6579 24.795 16.5642C24.6637 16.4704 24.4857 16.4177 24.3 16.4177H14.7Z" fill="black"/>
<path d="M14.7 20.4177H24.3C24.4857 20.4177 24.6637 20.365 24.795 20.2713C24.9263 20.1775 25 20.0503 25 19.9177C25 19.7851 24.9263 19.6579 24.795 19.5642C24.6637 19.4704 24.4857 19.4177 24.3 19.4177H14.7C14.5143 19.4177 14.3363 19.4704 14.205 19.5642C14.0738 19.6579 14 19.7851 14 19.9177C14 20.0503 14.0738 20.1775 14.205 20.2713C14.3363 20.365 14.5143 20.4177 14.7 20.4177Z" fill="black"/>
<path d="M14.7 23.4177H24.3C24.3919 23.4177 24.483 23.4048 24.5679 23.3797C24.6528 23.3545 24.73 23.3177 24.795 23.2713C24.86 23.2248 24.9115 23.1697 24.9467 23.1091C24.9819 23.0484 25 22.9834 25 22.9177C25 22.8521 24.9819 22.787 24.9467 22.7264C24.9115 22.6657 24.86 22.6106 24.795 22.5642C24.73 22.5177 24.6528 22.4809 24.5679 22.4558C24.483 22.4307 24.3919 22.4177 24.3 22.4177H14.7C14.5143 22.4177 14.3363 22.4704 14.205 22.5642C14.0738 22.6579 14 22.7851 14 22.9177C14 23.0503 14.0738 23.1775 14.205 23.2713C14.3363 23.365 14.5143 23.4177 14.7 23.4177Z" fill="black"/>
<path d="M49.6962 10.2419C49.6015 10.1768 49.4924 10.1356 49.3783 10.1219C49.2643 10.1082 49.1485 10.1224 49.0412 10.1633L45.5789 11.4838H44.0254C43.0872 9.13972 40.6984 5.53994 34.7424 4.40698C31.3465 3.74583 27.8414 3.91045 24.5224 4.88698V3.12658C24.5223 2.93868 24.4477 2.75851 24.3148 2.62561C24.182 2.4927 24.0019 2.41794 23.8139 2.41772H15.4586C15.2706 2.41783 15.0904 2.49255 14.9575 2.62546C14.8245 2.75838 14.7498 2.93861 14.7497 3.12658V9.58326H13.6155C12.1868 9.5816 10.8122 10.1296 9.77659 11.1138C8.74099 12.098 8.12377 13.4429 8.05282 14.8697L6.93964 36.5944C6.46982 36.2637 5.91814 36.0684 5.34487 36.0299C4.7716 35.9915 4.19877 36.1113 3.68898 36.3763C3.17919 36.6413 2.75203 37.0413 2.45416 37.5325C2.1563 38.0238 1.99919 38.5875 2 39.1621V47.2783C1.99948 47.8974 2.18217 48.5028 2.52506 49.0182C2.86795 49.5337 3.35571 49.9361 3.92691 50.1749C4.49811 50.4138 5.1272 50.4782 5.73497 50.3602C6.34273 50.2422 6.90198 49.947 7.34229 49.5118C7.9264 50.0889 8.71348 50.4141 9.53462 50.4175H29.7363C30.5578 50.414 31.3452 50.0885 31.9295 49.511C32.3697 49.9463 32.9289 50.2416 33.5367 50.3597C34.1444 50.4778 34.7736 50.4135 35.3448 50.1747C35.916 49.936 36.4039 49.5336 36.7468 49.0182C37.0898 48.5028 37.2726 47.8974 37.2722 47.2783V39.1621C37.2729 38.5875 37.1158 38.0238 36.8179 37.5325C36.52 37.0412 36.0928 36.6412 35.5829 36.3762C35.0731 36.1113 34.5002 35.9915 33.9269 36.0301C33.3536 36.0686 32.8019 36.264 32.3321 36.5948L31.2222 14.8693C31.1492 13.4428 30.531 12.0988 29.4953 11.1151C28.4596 10.1313 27.0856 9.58295 25.6571 9.58326H24.5229V6.38773C27.7399 5.36452 31.1619 5.16247 34.4771 5.79999C39.3454 6.72636 41.5171 9.45688 42.4767 11.4842H42.0639C41.876 11.4843 41.6957 11.559 41.5628 11.692C41.4299 11.8249 41.3551 12.0051 41.355 12.1931V20.3417C41.3554 20.5118 41.417 20.676 41.5286 20.8043C41.6402 20.9326 41.7943 21.0165 41.9627 21.0404V43.2378C41.7992 43.2608 41.6489 43.3403 41.5379 43.4626C41.4269 43.5848 41.3622 43.742 41.355 43.907L41.112 49.6779C41.108 49.7733 41.1234 49.8686 41.1571 49.958C41.1909 50.0474 41.2424 50.1291 41.3086 50.198C41.3747 50.267 41.4541 50.3219 41.542 50.3594C41.6299 50.3969 41.7245 50.4163 41.8201 50.4163H45.952C46.0475 50.4164 46.1421 50.3971 46.23 50.3598C46.3179 50.3224 46.3973 50.2676 46.4635 50.1988C46.5297 50.1299 46.5814 50.0484 46.6153 49.9591C46.6492 49.8698 46.6647 49.7745 46.6609 49.6791L46.4178 43.9082C46.4106 43.7432 46.3459 43.586 46.2349 43.4638C46.1239 43.3416 45.9737 43.262 45.8102 43.239V21.0416C45.9788 21.0178 46.1332 20.9339 46.2448 20.8052C46.3565 20.6766 46.4179 20.512 46.4178 20.3417V14.9353L49.3924 14.5149C49.5611 14.4905 49.7155 14.4061 49.8271 14.2772C49.9387 14.1483 50.0001 13.9834 50 13.8129V10.8256C50.0003 10.711 49.9728 10.598 49.9199 10.4964C49.867 10.3947 49.7902 10.3074 49.6962 10.2419ZM16.1675 3.83544H23.1046V5.39695C20.7284 6.38733 19.0416 7.85122 18.2736 9.58326H16.1671L16.1675 3.83544ZM5.13943 48.9998C4.68299 48.9993 4.2454 48.8177 3.92265 48.495C3.5999 48.1723 3.41834 47.7347 3.41781 47.2783V39.1621C3.41781 38.7055 3.59919 38.2676 3.92206 37.9448C4.24493 37.6219 4.68283 37.4406 5.13943 37.4406C5.59603 37.4406 6.03393 37.6219 6.3568 37.9448C6.67966 38.2676 6.86105 38.7055 6.86105 39.1621V47.2783C6.86051 47.7347 6.67896 48.1723 6.35621 48.495C6.03346 48.8177 5.59587 48.9993 5.13943 48.9998ZM34.1327 37.4406C34.5892 37.4411 35.0268 37.6226 35.3495 37.9454C35.6723 38.2681 35.8538 38.7057 35.8544 39.1621V47.2783C35.8544 47.7349 35.673 48.1727 35.3501 48.4956C35.0272 48.8184 34.5893 48.9998 34.1327 48.9998C33.6761 48.9998 33.2382 48.8184 32.9154 48.4956C32.5925 48.1727 32.4111 47.7349 32.4111 47.2783V39.1621C32.4116 38.7057 32.5932 38.2681 32.916 37.9454C33.2387 37.6226 33.6763 37.4411 34.1327 37.4406ZM29.806 14.9418L31.0245 38.7517C31.0057 38.8877 30.9957 39.0248 30.9945 39.1621V47.2783C30.9949 47.6101 31.0481 47.9398 31.1521 48.2549C30.9942 48.4842 30.7829 48.6718 30.5366 48.8015C30.2902 48.9313 30.016 48.9993 29.7375 48.9998H9.53462C9.25642 48.9991 8.98253 48.931 8.73639 48.8013C8.49025 48.6717 8.27919 48.4843 8.12128 48.2553C8.22524 47.94 8.27843 47.6102 8.27885 47.2783V39.1621C8.27777 39.0242 8.26762 38.8866 8.24847 38.7501L9.4686 14.941C9.52164 13.8777 9.98162 12.8756 10.7533 12.1421C11.525 11.4087 12.5492 11.0001 13.6139 11.001H15.4489H15.4586H23.8139H23.8237H25.6571C26.722 11.0009 27.7463 11.4098 28.5183 12.1432C29.2904 12.8765 29.7514 13.8784 29.806 14.9418ZM19.8741 9.58326C20.6812 8.41817 21.801 7.50479 23.1046 6.94834V9.58326H19.8741ZM43.3797 43.2277V21.0506H44.3924V43.2277H43.3797ZM45 14.318V19.6328H42.772V12.9015H45V14.318ZM42.561 48.9986L42.7433 44.6454H45.0296L45.2119 48.9986H42.561ZM48.585 13.1972L46.4186 13.5034V12.6812L48.585 11.8548V13.1972Z" fill="black"/>
</g>
<defs>
<clipPath id="clip0">
<rect width="50" height="50" fill="white" transform="translate(0 0.417725)"/>
</clipPath>
</defs>
</svg>
