<svg width="50" height="40" viewBox="0 0 50 40" fill="none" xmlns="http://www.w3.org/2000/svg">
<path d="M47.875 3.85455C46.5187 1.04727 45.0469 0.530909 42.05 0.334545C39.0563 0.0981819 31.5281 0 25.0062 0C18.4719 0 10.9406 0.0981821 7.95 0.330909C4.95937 0.530909 3.48437 1.04364 2.11562 3.85455C0.71875 6.65818 0 11.4873 0 19.9891C0 19.9964 0 20 0 20C0 20.0073 0 20.0109 0 20.0109V20.0182C0 28.4836 0.71875 33.3491 2.11562 36.1236C3.48437 38.9309 4.95625 39.44 7.94687 39.6764C10.9406 39.88 18.4719 40 25.0062 40C31.5281 40 39.0562 39.88 42.0531 39.68C45.05 39.4436 46.5219 38.9345 47.8781 36.1273C49.2875 33.3527 50 28.4873 50 20.0218C50 20.0218 50 20.0109 50 20.0036C50 20.0036 50 19.9964 50 19.9927C50 11.4873 49.2875 6.65818 47.875 3.85455ZM18.75 30.9091V9.09091L34.375 20L18.75 30.9091Z" fill="black"/>
</svg>
